HIERARCHY
ROOT hip
{
  OFFSET 0 0 0
  CHANNELS 6 Xposition Yposition Zposition Zrotation Yrotation Xrotation
  JOINT abdomen
  {
    OFFSET 0 20.6881 -0.73152
    CHANNELS 3 Zrotation Xrotation Yrotation
    JOINT chest
    {
      OFFSET 0 11.7043 -0.48768
      CHANNELS 3 Zrotation Xrotation Yrotation
      JOINT neck
      {
        OFFSET 0 22.1894 -2.19456
        CHANNELS 3 Zrotation Xrotation Yrotation
        JOINT head
        {
          OFFSET -0.24384 7.07133 1.2192
          CHANNELS 3 Zrotation Xrotation Yrotation
          JOINT leftEye
          {
            OFFSET 4.14528 8.04674 8.04672
            CHANNELS 3 Zrotation Xrotation Yrotation
            End Site
            {
              OFFSET 1 0 0
            }
          }
          JOINT rightEye
          {
            OFFSET -3.6576 8.04674 8.04672
            CHANNELS 3 Zrotation Xrotation Yrotation
            End Site
            {
              OFFSET 1 0 0
            }
          }
        }
      }
      JOINT rCollar
      {
        OFFSET -2.68224 19.2634 -4.8768
        CHANNELS 3 Zrotation Xrotation Yrotation
        JOINT rShldr
        {
          OFFSET -8.77824 -1.95073 1.46304
          CHANNELS 3 Zrotation Xrotation Yrotation
          JOINT rForeArm
          {
            OFFSET -28.1742 -1.7115 0.48768
            CHANNELS 3 Zrotation Xrotation Yrotation
            JOINT rHand
            {
              OFFSET -22.5879 0.773209 7.07136
              CHANNELS 3 Zrotation Xrotation Yrotation
              JOINT rThumb1
              {
                OFFSET -1.2192 -0.487915 3.41376
                CHANNELS 3 Zrotation Xrotation Yrotation
                JOINT rThumb2
                {
                  OFFSET -3.37035 -0.52449 3.41376
                  CHANNELS 3 Zrotation Xrotation Yrotation
                  End Site
                  {
                    OFFSET -1.78271 -1.18214 1.43049
                  }
                }
              }
              JOINT rIndex1
              {
                OFFSET -7.75947 0.938293 5.60832
                CHANNELS 3 Zrotation Xrotation Yrotation
                JOINT rIndex2
                {
                  OFFSET -2.54057 -0.884171 1.56538
                  CHANNELS 3 Zrotation Xrotation Yrotation
                  End Site
                  {
                    OFFSET -1.62519 -0.234802 1.16502
                  }
                }
              }
              JOINT rMid1
              {
                OFFSET -8.24714 1.18213 3.41376
                CHANNELS 3 Zrotation Xrotation Yrotation
                JOINT rMid2
                {
                  OFFSET -3.10165 -0.590103 1.0647
                  CHANNELS 3 Zrotation Xrotation Yrotation
                  End Site
                  {
                    OFFSET -2.48547 -0.328903 0.83742
                  }
                }
              }
              JOINT rRing1
              {
                OFFSET -8.82822 0.546677 1.51678
                CHANNELS 3 Zrotation Xrotation Yrotation
                JOINT rRing2
                {
                  OFFSET -2.60934 -0.819778 -0.0198488
                  CHANNELS 3 Zrotation Xrotation Yrotation
                  End Site
                  {
                    OFFSET -2.33842 -0.294052 0.168128
                  }
                }
              }
              JOINT rPinky1
              {
                OFFSET -8.27202 -0.0477905 -0.4584
                CHANNELS 3 Zrotation Xrotation Yrotation
                JOINT rPinky2
                {
                  OFFSET -1.82734 -0.647385 -0.700984
                  CHANNELS 3 Zrotation Xrotation Yrotation
                  End Site
                  {
                    OFFSET -1.69225 -0.51767 -0.607171
                  }
                }
              }
            }
          }
        }
      }
      JOINT lCollar
      {
        OFFSET 2.68224 19.2634 -4.8768
        CHANNELS 3 Zrotation Xrotation Yrotation
        JOINT lShldr
        {
          OFFSET 8.77824 -1.95073 1.46304
          CHANNELS 3 Zrotation Xrotation Yrotation
          JOINT lForeArm
          {
            OFFSET 28.1742 -1.7115 0.48768
            CHANNELS 3 Zrotation Xrotation Yrotation
            JOINT lHand
            {
              OFFSET 22.5879 0.773209 7.07136
              CHANNELS 3 Zrotation Xrotation Yrotation
              JOINT lThumb1
              {
                OFFSET 1.2192 -0.487915 3.41376
                CHANNELS 3 Zrotation Xrotation Yrotation
                JOINT lThumb2
                {
                  OFFSET 3.37035 -0.52449 3.41376
                  CHANNELS 3 Zrotation Xrotation Yrotation
                  End Site
                  {
                    OFFSET 1.78271 -1.18214 1.43049
                  }
                }
              }
              JOINT lIndex1
              {
                OFFSET 7.75947 0.938293 5.60832
                CHANNELS 3 Zrotation Xrotation Yrotation
                JOINT lIndex2
                {
                  OFFSET 2.54057 -0.884171 1.56538
                  CHANNELS 3 Zrotation Xrotation Yrotation
                  End Site
                  {
                    OFFSET 1.62519 -0.234802 1.16502
                  }
                }
              }
              JOINT lMid1
              {
                OFFSET 8.24714 1.18213 3.41376
                CHANNELS 3 Zrotation Xrotation Yrotation
                JOINT lMid2
                {
                  OFFSET 3.10165 -0.590103 1.0647
                  CHANNELS 3 Zrotation Xrotation Yrotation
                  End Site
                  {
                    OFFSET 2.48547 -0.328903 0.83742
                  }
                }
              }
              JOINT lRing1
              {
                OFFSET 8.82822 0.546677 1.51678
                CHANNELS 3 Zrotation Xrotation Yrotation
                JOINT lRing2
                {
                  OFFSET 2.60934 -0.819778 -0.0198488
                  CHANNELS 3 Zrotation Xrotation Yrotation
                  End Site
                  {
                    OFFSET 2.33842 -0.294052 0.168128
                  }
                }
              }
              JOINT lPinky1
              {
                OFFSET 8.27202 -0.0477905 -0.4584
                CHANNELS 3 Zrotation Xrotation Yrotation
                JOINT lPinky2
                {
                  OFFSET 1.82734 -0.647385 -0.700984
                  CHANNELS 3 Zrotation Xrotation Yrotation
                  End Site
                  {
                    OFFSET 1.69225 -0.51767 -0.607171
                  }
                }
              }
            }
          }
        }
      }
    }
  }
  JOINT rButtock
  {
    OFFSET -8.77824 4.35084 1.2192
    CHANNELS 3 Zrotation Xrotation Yrotation
    JOINT rThigh
    {
      OFFSET 0 -1.70687 -2.19456
      CHANNELS 3 Zrotation Xrotation Yrotation
      JOINT rShin
      {
        OFFSET 0 -36.8199 0.73152
        CHANNELS 3 Zrotation Xrotation Yrotation
        JOINT rFoot
        {
          OFFSET 0.73152 -45.1104 -5.12064
          CHANNELS 3 Zrotation Xrotation Yrotation
          End Site
          {
            OFFSET -1.1221 -3.69964 12.103
          }
        }
      }
    }
  }
  JOINT lButtock
  {
    OFFSET 8.77824 4.35084 1.2192
    CHANNELS 3 Zrotation Xrotation Yrotation
    JOINT lThigh
    {
      OFFSET 0 -1.70687 -2.19456
      CHANNELS 3 Zrotation Xrotation Yrotation
      JOINT lShin
      {
        OFFSET 0 -36.8199 0.73152
        CHANNELS 3 Zrotation Xrotation Yrotation
        JOINT lFoot
        {
          OFFSET -0.73152 -45.1104 -5.12064
          CHANNELS 3 Zrotation Xrotation Yrotation
          End Site
          {
            OFFSET 1.1221 -3.69964 12.103
          }
        }
      }
    }
  }
}
MOTION
Frames:	8
Frame Time:	0.00833333
104.801 77.6676 136.764 -50.285 80.1259 -43.4748 -7.97759 18.206 -9.24089 4.76327 -7.76545 -2.56727 -7.47606 1.87331 -13.8652 24.1513 16.2725 -27.9066 -0.0 0.0 0.0 -0.0 0.0 0.0 -2.12874e-13 9.31282e-13 9.01457e-14 85.3441 41.0822 -19.8954 -24.1928 -19.4639 50.2112 -0.0116123 -3.08741 -0.434326 1.915e-09 3.05484e-09 -1.93383e-09 3.31557e-09 5.27222e-09 -3.33265e-09 1.915e-09 3.05484e-09 -1.93384e-09 7.73091 5.47488 0.417314 1.91499e-09 3.05483e-09 -1.93383e-09 2.90554 0.965183 0.102902 1.915e-09 3.05484e-09 -1.93384e-09 10.2786 0.731801 0.0259123 1.915e-09 3.05484e-09 -1.93384e-09 2.22167 -0.733487 -0.20892 -2.13002e-13 9.3128e-13 8.99345e-14 -42.0518 38.9933 -42.0512 22.3098 -16.2291 -44.638 0.862565 -25.3904 3.82502 -3.35597e-10 -6.53622e-10 6.63492e-10 -5.98291e-10 -1.13094e-09 1.14084e-09 -3.35599e-10 -6.53625e-10 6.635e-10 -7.73091 5.47488 -0.417314 -3.35596e-10 -6.53622e-10 6.63489e-10 -2.90554 0.965183 -0.102902 -3.35605e-10 -6.53624e-10 6.63492e-10 -10.2786 0.731801 -0.0259123 -3.35591e-10 -6.53622e-10 6.63484e-10 -2.22167 -0.733487 0.20892 -2.03217e-16 0.0 -3.88251e-19 -3.44222 -44.2782 -8.82903 -0.989691 59.0946 1.54399 3.71046 -22.1723 6.92475 2.03217e-16 0.0 3.88251e-19 15.7887 -41.2048 -10.9504 1.09119 62.8214 -2.22556 2.34327 -33.5749 5.0639
104.521 77.4568 138.969 -49.2179 79.9723 -42.5505 -8.08735 18.2467 -8.98003 4.62214 -7.75257 -2.50688 -7.37593 1.82619 -13.9094 23.9789 16.4576 -28.0224 -0.0 0.0 0.0 -0.0 0.0 0.0 -2.39099e-13 9.16525e-13 1.13582e-13 85.4029 40.9095 -19.7663 -23.935 -18.9779 49.3913 -0.0096721 -2.81377 -0.395767 2.20006e-09 4.32845e-09 -2.72857e-09 3.8112e-09 7.46931e-09 -4.70159e-09 2.20006e-09 4.32846e-09 -2.72859e-09 7.73091 5.47488 0.417314 2.20004e-09 4.32845e-09 -2.72857e-09 2.90554 0.965183 0.102902 2.20006e-09 4.32846e-09 -2.72859e-09 10.2786 0.731801 0.0259123 2.20005e-09 4.32846e-09 -2.72858e-09 2.22167 -0.733487 -0.20892 -2.39281e-13 9.16523e-13 1.13348e-13 -42.5631 38.7635 -40.7822 22.2244 -16.0975 -44.4024 0.880576 -25.6381 3.86767 -1.52209e-10 -1.16038e-09 1.62365e-09 -3.03321e-10 -2.02197e-09 2.80642e-09 -1.52213e-10 -1.16038e-09 1.62366e-09 -7.73091 5.47488 -0.417314 -1.52209e-10 -1.16038e-09 1.62365e-09 -2.90554 0.965183 -0.102902 -1.5222e-10 -1.16038e-09 1.62365e-09 -10.2786 0.731801 -0.0259123 -1.52203e-10 -1.16038e-09 1.62365e-09 -2.22167 -0.733487 0.20892 -2.03217e-16 0.0 -3.88251e-19 -3.37875 -44.7595 -8.8127 -1.02524 59.73 1.59518 3.62565 -21.888 6.79199 2.03217e-16 0.0 3.88251e-19 15.8206 -41.3858 -11.1412 1.12552 63.3099 -2.27018 2.30363 -33.5081 5.00782
104.253 77.2622 141.199 -47.9208 79.7351 -41.4635 -8.26633 18.2876 -8.68039 4.50966 -7.72021 -2.43726 -7.33958 1.81796 -13.9417 23.909 16.5823 -28.1087 -0.0 0.0 0.0 -0.0 0.0 0.0 -2.32062e-13 7.41466e-13 7.96133e-14 85.4068 40.6796 -19.6314 -23.6874 -18.5244 48.6353 -0.00798491 -2.55052 -0.358691 2.24808e-09 4.87527e-09 -3.02396e-09 3.89571e-09 8.41324e-09 -5.21046e-09 2.24808e-09 4.87528e-09 -3.02398e-09 7.73091 5.47488 0.417314 2.24806e-09 4.87526e-09 -3.02395e-09 2.90554 0.965183 0.102902 2.24808e-09 4.87528e-09 -3.02398e-09 10.2786 0.731801 0.0259123 2.24808e-09 4.87528e-09 -3.02397e-09 2.22167 -0.733487 -0.20892 -2.32265e-13 7.41466e-13 7.93648e-14 -42.9948 38.5251 -39.6037 22.1271 -15.9494 -44.1344 0.898553 -25.8791 3.90944 1.78499e-10 -1.26881e-09 2.11075e-09 2.56611e-10 -2.22131e-09 3.65672e-09 1.78494e-10 -1.26881e-09 2.11076e-09 -7.73091 5.47488 -0.417314 1.78499e-10 -1.2688e-09 2.11075e-09 -2.90554 0.965183 -0.102902 1.78486e-10 -1.26881e-09 2.11075e-09 -10.2786 0.731801 -0.0259123 1.78504e-10 -1.26881e-09 2.11075e-09 -2.22167 -0.733487 0.20892 -2.03217e-16 0.0 -3.88251e-19 -3.26804 -45.2279 -8.71509 -1.06017 60.3419 1.64784 3.49172 -21.611 6.5507 2.03217e-16 0.0 3.88251e-19 15.911 -41.4795 -11.1684 1.15932 63.7797 -2.31534 2.29026 -33.4713 4.98629
103.983 77.0592 143.417 -45.9253 79.4179 -39.6949 -8.54762 18.3303 -8.31883 4.44128 -7.65863 -2.3526 -7.40969 1.87898 -13.9679 24.0088 16.5976 -28.1702 -0.0 0.0 0.0 -0.0 0.0 0.0 -1.72834e-13 2.87903e-13 -5.62685e-14 85.3458 40.3871 -19.4807 -23.4539 -18.11 47.9318 -0.00638721 -2.28795 -0.321722 1.92233e-09 4.28972e-09 -2.5318e-09 3.33193e-09 7.40481e-09 -4.36285e-09 1.92233e-09 4.28973e-09 -2.53181e-09 7.73091 5.47488 0.417314 1.92231e-09 4.28971e-09 -2.53179e-09 2.90554 0.965183 0.102902 1.92233e-09 4.28973e-09 -2.53181e-09 10.2786 0.731801 0.0259123 1.92232e-09 4.28972e-09 -2.5318e-09 2.22167 -0.733487 -0.20892 -1.73004e-13 2.87907e-13 -5.65216e-14 -43.3435 38.2889 -38.529 22.012 -15.7759 -43.8199 0.915998 -26.1057 3.949 7.90291e-10 -7.3294e-10 1.87925e-09 1.3179e-09 -1.30321e-09 3.2699e-09 7.90286e-10 -7.32941e-10 1.87926e-09 -7.73091 5.47488 -0.417314 7.90291e-10 -7.32938e-10 1.87925e-09 -2.90554 0.965183 -0.102902 7.90278e-10 -7.32942e-10 1.87925e-09 -10.2786 0.731801 -0.0259123 7.90295e-10 -7.32941e-10 1.87925e-09 -2.22167 -0.733487 0.20892 -2.03217e-16 0.0 -3.88251e-19 -3.11032 -45.6904 -8.53508 -1.0947 60.9418 1.70355 3.28675 -21.3493 6.14813 2.03217e-16 0.0 3.88251e-19 16.0598 -41.4682 -11.0061 1.19197 64.2294 -2.36162 2.32874 -33.4678 5.03864
103.721 76.8716 145.62 -43.5151 79.0672 -37.5472 -8.89232 18.373 -7.91097 4.3971 -7.57524 -2.25672 -7.54076 1.97242 -13.984 24.2025 16.5443 -28.2035 -0.0 0.0 0.0 -0.0 0.0 0.0 -7.7773e-14 -3.73845e-13 -2.66303e-13 85.2193 40.0434 -19.3026 -23.2318 -17.7276 47.2628 -0.00491317 -2.02012 -0.284026 1.34081e-09 2.97389e-09 -1.52305e-09 2.32469e-09 5.1373e-09 -2.62543e-09 1.34081e-09 2.97389e-09 -1.52306e-09 7.73091 5.47488 0.417314 1.3408e-09 2.97388e-09 -1.52305e-09 2.90554 0.965183 0.102902 1.34082e-09 2.97389e-09 -1.52306e-09 10.2786 0.731801 0.0259123 1.34081e-09 2.97389e-09 -1.52305e-09 2.22167 -0.733487 -0.20892 -7.78774e-14 -3.73834e-13 -2.66558e-13 -43.616 38.0615 -37.5375 21.8843 -15.5852 -43.4756 0.930669 -26.2949 3.98214 1.63552e-09 2.42736e-10 1.20756e-09 2.79209e-09 3.76123e-10 2.1266e-09 1.63552e-09 2.42735e-10 1.20757e-09 -7.73091 5.47488 -0.417314 1.63553e-09 2.42738e-10 1.20756e-09 -2.90554 0.965183 -0.102902 1.63551e-09 2.42735e-10 1.20757e-09 -10.2786 0.731801 -0.0259123 1.63553e-09 2.42736e-10 1.20756e-09 -2.22167 -0.733487 0.20892 -2.03217e-16 0.0 -3.88251e-19 -2.90903 -46.1698 -8.28336 -1.13137 61.5573 1.76429 3.03685 -21.0637 5.6447 2.03217e-16 0.0 3.88251e-19 16.2591 -41.3867 -10.7034 1.22581 64.684 -2.41107 2.39917 -33.4774 5.13684
103.455 76.6783 147.807 -40.6933 78.6407 -34.9864 -9.25539 18.4127 -7.49708 4.35694 -7.48635 -2.15987 -7.67076 2.05755 -13.9799 24.3942 16.503 -28.1991 -0.0 0.0 0.0 -0.0 0.0 0.0 2.28026e-14 -1.03056e-12 -4.71166e-13 85.0526 39.6516 -19.1311 -23.0277 -17.3842 46.6591 -0.00376935 -1.77335 -0.249305 7.22697e-10 1.53875e-09 -4.4293e-10 1.25398e-09 2.66395e-09 -7.65072e-10 7.22698e-10 1.53875e-09 -4.42936e-10 7.73091 5.47488 0.417314 7.22694e-10 1.53874e-09 -4.42935e-10 2.90554 0.965183 0.102902 7.22706e-10 1.53874e-09 -4.42934e-10 10.2786 0.731801 0.0259123 7.22694e-10 1.53874e-09 -4.42927e-10 2.22167 -0.733487 -0.20892 2.27667e-14 -1.03054e-12 -4.71419e-13 -43.8251 37.8324 -36.6124 21.7515 -15.389 -43.1219 0.945175 -26.4816 4.01489 2.44896e-09 1.25818e-09 4.39324e-10 4.21364e-09 2.12587e-09 8.15518e-10 2.44896e-09 1.25818e-09 4.39329e-10 -7.73091 5.47488 -0.417314 2.44897e-09 1.25818e-09 4.39322e-10 -2.90554 0.965183 -0.102902 2.44895e-09 1.25818e-09 4.39332e-10 -10.2786 0.731801 -0.0259123 2.44896e-09 1.25818e-09 4.39325e-10 -2.22167 -0.733487 0.20892 -2.03217e-16 0.0 -3.88251e-19 -2.6502 -46.633 -7.94631 -1.16788 62.1418 1.82511 2.77843 -20.7631 5.11606 2.03217e-16 0.0 3.88251e-19 16.5152 -41.2475 -10.2821 1.26038 65.1277 -2.46077 2.45875 -33.5075 5.21329
103.192 76.5163 150.013 -38.17 78.0532 -32.739 -9.59162 18.447 -7.11745 4.30075 -7.40829 -2.0723 -7.73775 2.09368 -13.945 24.4882 16.554 -28.1478 -0.0 0.0 0.0 -0.0 0.0 0.0 9.85728e-14 -1.46903e-12 -5.91533e-13 84.8697 39.2151 -18.9995 -22.8493 -17.088 46.1513 -0.00303919 -1.57393 -0.221257 2.87163e-10 5.95257e-10 2.63353e-10 4.998e-10 1.038e-09 4.51339e-10 2.87165e-10 5.95255e-10 2.6335e-10 7.73091 5.47488 0.417314 2.87163e-10 5.95253e-10 2.63347e-10 2.90554 0.965183 0.102902 2.87173e-10 5.95251e-10 2.63353e-10 10.2786 0.731801 0.0259123 2.87159e-10 5.95251e-10 2.63359e-10 2.22167 -0.733487 -0.20892 9.85782e-14 -1.46901e-12 -5.91782e-13 -43.982 37.5895 -35.7378 21.6215 -15.1992 -42.7788 0.962312 -26.7004 4.05339 2.96536e-09 1.91336e-09 -8.18389e-11 5.11702e-09 3.25523e-09 -7.46452e-11 2.96536e-09 1.91335e-09 -8.18357e-11 -7.73091 5.47488 -0.417314 2.96537e-09 1.91336e-09 -8.1842e-11 -2.90554 0.965183 -0.102902 2.96536e-09 1.91336e-09 -8.18309e-11 -10.2786 0.731801 -0.0259123 2.96537e-09 1.91336e-09 -8.18389e-11 -2.22167 -0.733487 0.20892 -2.03217e-16 0.0 -3.88251e-19 -2.32043 -47.0466 -7.51057 -1.20103 62.649 1.88028 2.54588 -20.4573 4.63712 2.03217e-16 0.0 3.88251e-19 16.834 -41.0631 -9.76396 1.29486 65.5453 -2.50742 2.46453 -33.5658 5.20036
102.921 76.3573 152.23 -35.837 77.3961 -30.6979 -9.90565 18.4715 -6.75757 4.23006 -7.33799 -1.99011 -7.72276 2.06452 -13.8754 24.4437 16.7243 -28.0435 -0.0 0.0 0.0 -0.0 0.0 0.0 1.45235e-13 -1.63772e-12 -6.05082e-13 84.6638 38.7194 -18.9054 -22.7008 -16.8453 45.7373 -0.00251688 -1.39738 -0.196432 1.3085e-10 4.33912e-10 4.21608e-10 2.29905e-10 7.61133e-10 7.23473e-10 1.30853e-10 4.33905e-10 4.21605e-10 7.73091 5.47488 0.417314 1.30851e-10 4.33907e-10 4.21603e-10 2.90554 0.965183 0.102902 1.3086e-10 4.33902e-10 4.21609e-10 10.2786 0.731801 0.0259123 1.30845e-10 4.33907e-10 4.21615e-10 2.22167 -0.733487 -0.20892 1.4524e-13 -1.6377e-12 -6.05322e-13 -44.0897 37.3389 -34.9116 21.4958 -15.0182 -42.4483 0.98502 -26.9868 4.10399 3.15594e-09 2.11144e-09 -2.60897e-10 5.45031e-09 3.59614e-09 -3.7999e-10 3.15594e-09 2.11144e-09 -2.60895e-10 -7.73091 5.47488 -0.417314 3.15595e-09 2.11144e-09 -2.609e-10 -2.90554 0.965183 -0.102902 3.15593e-09 2.11144e-09 -2.60892e-10 -10.2786 0.731801 -0.0259123 3.15594e-09 2.11144e-09 -2.609e-10 -2.22167 -0.733487 0.20892 -2.03217e-16 0.0 -3.88251e-19 -1.87835 -47.3788 -6.92631 -1.22752 63.0475 1.92594 2.34139 -20.17 4.211 2.03217e-16 0.0 3.88251e-19 17.2366 -40.7962 -9.12348 1.32741 65.9154 -2.54748 2.38695 -33.6696 5.04879
